<?xml version="1.0" standalone="no"?><!DOCTYPE svg PUBLIC "-//W3C//DTD SVG 1.1//EN" "http://www.w3.org/Graphics/SVG/1.1/DTD/svg11.dtd"><svg t="1600915104022" class="icon" viewBox="0 0 1024 1024" version="1.1" xmlns="http://www.w3.org/2000/svg" p-id="6657" xmlns:xlink="http://www.w3.org/1999/xlink" width="32" height="32"><defs><style type="text/css"></style></defs><path d="M719.189333 941.738667a238.933333 238.933333 0 0 0 26.453334-39.082667 85.333333 85.333333 0 0 0-3.925334-79.018667c-6.314667-11.093333-3.242667-17.066667 4.266667-24.746666a105.301333 105.301333 0 0 0 26.282667-107.349334 102.4 102.4 0 0 0-77.824-74.24 175.786667 175.786667 0 0 0-43.349334-4.608H389.802667a137.386667 137.386667 0 0 0-80.213334 18.773334 109.056 109.056 0 0 0-22.869333 158.890666c5.802667 7.168 8.533333 12.117333 2.56 20.992a89.770667 89.770667 0 0 0 2.56 113.493334 50.005333 50.005333 0 0 1 2.218667 4.949333c-5.802667 3.584-10.410667 0-14.677334-2.389333a224.426667 224.426667 0 0 1-89.6-338.432 216.917333 216.917333 0 0 1 182.954667-91.648h300.032a224.768 224.768 0 0 1 65.877333 438.272c-4.778667 3.072-10.069333 3.072-19.456 6.144z" fill="#0C80C9" p-id="6658"></path><path d="M327.850667 101.205333h112.981333C454.656 102.4 460.8 98.304 460.8 82.602667a59.904 59.904 0 0 1 59.050667-61.781334 58.538667 58.538667 0 0 1 57.173333 62.976c0 13.653333 4.949333 17.066667 18.090667 17.066667H820.906667a59.562667 59.562667 0 0 1 43.349333 14.165333 55.978667 55.978667 0 0 1 17.92 63.829334 58.709333 58.709333 0 0 1-55.978667 38.912h-230.4c-14.336-1.706667-18.432 4.778667-18.432 18.602666a57.002667 57.002667 0 0 1-39.594666 58.368A58.538667 58.538667 0 0 1 460.8 240.298667c-1.536-22.016-1.536-22.186667-24.405333-22.186667H215.381333A58.026667 58.026667 0 0 1 153.6 162.986667a57.173333 57.173333 0 0 1 58.026667-61.610667c38.741333-0.682667 77.482667-0.170667 116.224-0.170667zM518.656 431.274667h-267.946667a58.368 58.368 0 0 1-58.026666-44.714667A57.514667 57.514667 0 0 1 218.965333 324.266667a63.146667 63.146667 0 0 1 34.133334-9.557334H786.773333a59.733333 59.733333 0 0 1 61.44 59.562667 58.709333 58.709333 0 0 1-61.781333 57.173333c-89.258667 0-178.517333-0.170667-267.776-0.170666z" fill="#06639E" p-id="6659"></path><path d="M532.821333 710.997333a127.488 127.488 0 0 1 109.226667 55.296 48.469333 48.469333 0 0 0 35.669333 23.210667 80.213333 80.213333 0 0 1 63.829334 75.264 81.408 81.408 0 0 1-56.490667 77.824c-20.309333 5.973333-23.893333 3.584-25.258667-17.066667a52.906667 52.906667 0 0 0-57.173333-52.736 51.2 51.2 0 0 0-53.930667 53.76c0 14.506667-5.12 19.797333-18.773333 18.261334h-11.264a85.333333 85.333333 0 0 1-28.842667-1.536c-11.605333-4.608-3.242667-17.066667-5.290666-26.112a55.808 55.808 0 0 0-110.421334 8.533333c-0.853333 18.944-2.730667 20.48-22.186666 18.944a79.018667 79.018667 0 0 1-8.874667-155.306667 168.448 168.448 0 0 1 49.493333-2.730666 32.426667 32.426667 0 0 0 32.938667-17.066667 127.829333 127.829333 0 0 1 107.349333-58.538667z" fill="#00D051" p-id="6660"></path><path d="M474.282667 928.085333A46.250667 46.250667 0 0 1 430.08 972.8a45.738667 45.738667 0 0 1-44.714667-45.397333 44.544 44.544 0 1 1 88.917334 0.853333zM560.128 928.768a43.52 43.52 0 0 1 43.861333-45.738667 45.738667 45.738667 0 0 1 44.373334 44.373334A46.250667 46.250667 0 0 1 602.965333 972.8a45.397333 45.397333 0 0 1-42.837333-44.032z" fill="#06639E" p-id="6661"></path></svg>