<?xml version="1.0" standalone="no"?><!DOCTYPE svg PUBLIC "-//W3C//DTD SVG 1.1//EN" "http://www.w3.org/Graphics/SVG/1.1/DTD/svg11.dtd"><svg t="1600915039175" class="icon" viewBox="0 0 2663 1024" version="1.1" xmlns="http://www.w3.org/2000/svg" p-id="6441" width="83.21875" height="32" xmlns:xlink="http://www.w3.org/1999/xlink"><defs><style type="text/css"></style></defs><path d="M2658.865377 213.248158a75.264056 75.264056 0 0 0-14.402381-8.827266C2403.803855 147.740554 2163.144713 89.666437 1922.485572 33.915284a1043.011143 1043.011143 0 0 0-361.453305-27.875576 1271.126275 1271.126275 0 0 0-503.618743 181.191246 282.472506 282.472506 0 0 1-159.81997 40.419585 2545.969293 2545.969293 0 0 0-449.26137 11.614823 870.647163 870.647163 0 0 0-347.515517 111.502305 334.042322 334.042322 0 0 0-100.816667 92.918588c40.419585-22.765054 80.374578-46.459294 122.652535-64.578419 225.327574-99.887481 464.592937-108.250154 703.858299-96.170738 112.896084 5.575115 225.792167 15.331567 339.152844 10.221045a298.733258 298.733258 0 0 0 145.882182-29.269355c-72.476498-5.575115-145.417589-4.181336-218.823273-15.331567 2.787558-6.039708 3.252151-9.756452 6.039708-11.614823 10.221045-7.433487 21.371275-14.866974 32.521506-21.371275a1088.541251 1088.541251 0 0 1 769.830496-135.196545c175.61613 33.915284 347.98011 79.909985 523.131647 115.219048a720.119052 720.119052 0 0 0 234.619433 17.654532zM2395.441182 672.730572h124.046314c14.402381 0 31.59232 0 32.056913-19.512903s-17.654532-21.371275-32.986099-22.300461H2309.026896c-11.15023 0-30.663134 3.716743-29.269355-11.614823 2.787558-26.017204-6.968894-31.59232-28.804763-29.733948s-42.74255-7.433487-53.428187 11.614823c-16.260753 31.127727-41.813364 30.663134-69.688941 29.733948h-26.481797c-15.79616 0-34.379877 0-33.450692 22.300461s17.189939 19.512903 32.056913 19.512903h32.056913c25.088019 0 29.733948 10.685638 16.725345 30.663134s-30.663134 42.74255-43.671736 65.507604c-18.119125 32.056913-6.039708 53.428188 30.198541 54.357374s69.224348 0 103.604225 0c25.088019 0 39.954993 5.575115 40.419586 35.309063s-14.866974 36.702842-39.954993 36.238249h-146.346775c-15.79616 0-37.632028-4.181336-36.702842 21.371275s22.765054 19.512903 38.096621 19.977497h139.377881c33.450691 0 46.459294 9.291859 46.459293 46.459293 0 13.008602-4.645929 29.733948 12.54401 37.632028a52.963595 52.963595 0 0 0 72.476498-46.459294c0-30.198541 14.866974-38.096621 42.277957-37.167435h128.692244c14.402381 0 31.59232 0 32.521505-19.04831s-17.654532-22.300461-32.986098-22.300461h-107.320969c-24.623426 0-61.790861 15.331567-62.255453-33.915284s38.096621-34.379877 64.113825-36.702842 46.459294 0 71.547312 0c13.937788 0 27.875576 0 29.269355-19.048311s-12.079416-24.158833-27.875576-24.623425H2406.591412c-24.623426 0-41.813364-5.575115-41.348771-35.309064s-25.088019-31.127727-46.459294-32.056912-39.954993 7.433487-37.632028 34.379877-10.685638 32.521506-32.056912 32.056913-28.804762 0-42.74255 0-22.300461-8.827266-10.685638-25.088019c54.821967-80.374578 54.821967-80.374578 154.244855-80.839171zM1066.705383 695.495626h21.371275c52.034409 0 52.034409 0 52.499002 50.64063v178.403688c0 35.309063-3.716743 62.720046-48.782259 58.53871-10.221045 0-20.442089 3.252151-20.442089 14.866974s11.614823 16.260753 22.765054 16.725346a590.497623 590.497623 0 0 0 64.113825 0c46.459294-3.252151 65.972197-22.765054 66.43679-69.688941v-207.208449c0-21.835868 0-40.884178 29.733948-42.742551a16.725346 16.725346 0 0 0 17.654532-18.119124 19.04831 19.04831 0 0 0-19.512904-17.654532c-22.765054-2.322965-28.804762-16.725346-27.875576-37.167435 0-31.127727-19.04831-32.986099-42.74255-32.986098s-43.671736 3.252151-41.348771 33.915284-12.079416 35.309063-36.702842 34.84447-49.711444 0-74.799463 0c-13.473195 0-32.521506 0-32.986099 17.654532s20.442089 18.119125 34.844471 19.04831 23.69424 0.929186 35.773656 0.929186z" fill="#0074E8" p-id="6442"></path><path d="M1062.988639 873.434721c24.158833 0 46.459294 2.787558 40.884179-24.158833a316.38779 316.38779 0 0 0-33.450692-92.918587c-13.008602-23.229647-38.096621-19.04831-57.144931-12.079416s-5.110522 23.69424 0 36.238249c4.645929 19.512903 11.614823 38.561214 15.79616 58.074117s15.331567 38.096621 33.915284 34.84447zM1856.048782 604.435411h-374.9265c-29.269355 0-40.419585 11.15023-39.954992 40.419585v210.460601a166.324271 166.324271 0 0 1-29.269355 124.9755 21.371275 21.371275 0 0 0 0 29.733947c8.827266 8.827266 18.119125 2.787558 26.481797 0a136.590323 136.590323 0 0 0 84.091322-103.604224 32.521506 32.521506 0 0 1 37.167435-32.521506c71.547312-2.787558 72.011905-2.787558 72.011905 68.295162v18.583717c0 46.459294 4.181336 48.782258 49.246851 42.277957 20.906682-2.787558 29.733948-12.544009 29.733948-32.521505v-60.397082c0-19.977496 0-32.986099 18.119125-33.450691 27.410983 0 59.467896-13.937788 81.768356 8.362672s0 85.949693-26.017204 99.422889c-6.968894 3.252151-13.008602 6.039708-14.402381 13.937788a14.866974 14.866974 0 0 0 8.362673 14.866974 83.626729 83.626729 0 0 0 116.148234-59.932489v-307.095931c2.322965-30.663134-10.221045-42.277957-38.561214-41.813364z m-295.9457 46.459293h35.309063c25.552612 0 36.238249 9.756452 36.238249 35.309064s-13.937788 32.056913-36.238249 30.663133h-20.442089c-8.827266 0-33.915284 8.827266-46.459294-11.614823a34.84447 34.84447 0 0 1 31.59232-53.428188z m39.954992 179.797467h-25.088018c-12.544009-3.252151-32.986099 7.89808-46.459294-11.614824a35.309063 35.309063 0 0 1 29.269355-54.821966h39.025807c24.623426 0 33.915284 10.685638 33.450691 34.379877s-6.968894 33.915284-30.198541 32.986099z m111.966898-148.66974c0-18.583717 9.291859-28.340169 28.804762-27.875576h35.309063c25.088019 0 41.348771 4.181336 40.884179 34.379877s-18.119125 32.056913-40.419586 31.59232h-21.835868c-25.088019 0-46.459294-2.322965-42.74255-38.096621z m64.113825 150.063519h-17.189939c-18.583717 0-46.459294 8.827266-46.459293-30.663134 0-24.158833 7.433487-38.561214 34.379877-36.702842a246.234256 246.234256 0 0 0 32.056913 0c23.229647 0 38.561214 4.181336 39.025806 32.521505s-15.331567 36.702842-41.813364 34.844471zM587.710065 981.684875c-17.189939-5.110522-34.379877-10.221045-51.105223-16.260752-61.326268-21.835868-61.326268-22.300461-14.866974-65.972197a290.835178 290.835178 0 0 0 70.618126-101.745854c14.866974-39.954993 2.787558-57.609524-37.632028-58.074117h-79.445392l-4.645929-11.15023c23.69424-22.765054 46.459294-46.459294 70.618126-68.759755a40.419585 40.419585 0 0 0 7.89808-43.207143c-4.645929-13.473195-17.654532-14.402381-30.198541-14.402381H162.142935c-15.79616 0-29.269355 3.252151-30.198541 22.765054s12.544009 23.69424 28.340169 24.158833 29.733948 6.039708 29.733948 26.94639a1181.924431 1181.924431 0 0 1-3.25215 128.22765 381.430801 381.430801 0 0 1-67.830569 166.788865c-6.968894 10.685638-12.079416 23.69424-2.787558 32.986098s21.371275 0 29.733948-8.827266a310.348082 310.348082 0 0 0 111.037712-151.92189c0-7.433487 0-19.04831 12.544009-18.119124s10.221045 8.827266 13.937788 14.866974a345.657145 345.657145 0 0 0 62.720047 77.122427c18.583717 16.725346 12.079416 25.088019-6.968894 32.056913-27.875576 10.685638-55.286559 21.835868-83.162136 32.056912-10.685638 4.181336-20.906682 9.291859-17.189939 22.765054s15.79616 11.614823 26.481798 8.827266c41.348771-11.15023 82.697543-21.835868 123.581721-34.379877a103.604225 103.604225 0 0 1 62.720047 0c42.74255 13.473195 86.878879 24.158833 131.015208 33.915284 12.544009 2.787558 32.521506 11.614823 36.702842-7.433487s-17.654532-19.512903-31.59232-23.229647z m-151.457297-92.918587a19.04831 19.04831 0 0 1-30.663134 0 101.28126 101.28126 0 0 1-15.79616-20.906682c-20.906682-40.419585-46.459294-70.153533-99.422889-60.397082-15.331567 3.252151-22.765054-8.362673-20.906682-25.088019s3.252151-32.986099 4.64593-49.711444c4.645929-92.918587-11.614823-81.768357 86.414286-82.697543h57.144931c26.94639 0 28.340169 12.544009 13.473195 30.198541a299.197851 299.197851 0 0 1-39.490399 40.884179c-15.79616 13.008602-29.269355 26.481797-21.835868 46.459293s26.481797 15.79616 42.74255 16.260753 40.419585 0 60.397082 0 28.340169 8.827266 19.04831 28.804762a254.132336 254.132336 0 0 1-55.751152 76.657835zM932.902617 614.191862h-128.692244c-28.340169 0-37.167435 11.614823-36.238249 38.561214v292.69355c0 24.158833 10.685638 34.84447 34.844471 34.844471h106.856375c44.136329 0 63.184639-20.442089 63.18464-64.113826V655.076041c0.929186-30.663134-11.614823-41.348771-39.954993-40.884179z m-67.365976 64.578419c39.954993 0 40.884178 22.300461 37.632028 49.711444 4.645929 31.127727-3.716743 46.459294-39.025807 46.459293s-40.884178-19.512903-40.884178-49.246851 4.645929-46.923887 42.277957-46.923886z m-3.25215 226.721353c-39.954993 0-38.096621-23.229647-39.025807-50.64063s6.504301-46.459294 42.74255-46.459294 39.4904 23.229647 37.632028 52.499002c5.110522 29.269355-5.110522 44.600922-41.348771 44.600922z" fill="#0074E8" p-id="6443"></path></svg>