<?xml version="1.0" standalone="no"?><!DOCTYPE svg PUBLIC "-//W3C//DTD SVG 1.1//EN" "http://www.w3.org/Graphics/SVG/1.1/DTD/svg11.dtd"><svg t="1600915110569" class="icon" viewBox="0 0 1024 1024" version="1.1" xmlns="http://www.w3.org/2000/svg" p-id="6785" xmlns:xlink="http://www.w3.org/1999/xlink" width="32" height="32"><defs><style type="text/css"></style></defs><path d="M844.458667 504.661333a309.76 309.76 0 0 1-107.349334 240.981334c-23.381333 20.48-44.714667 19.456-63.829333-2.218667s-15.189333-40.277333 7.850667-61.269333a238.933333 238.933333 0 0 0 55.125333-275.968 235.690667 235.690667 0 1 0-379.050667 267.605333c28.16 30.037333 31.744 51.2 12.288 71.68s-44.373333 17.066667-74.24-11.605333a324.266667 324.266667 0 1 1 543.232-297.642667 316.245333 316.245333 0 0 1 5.973334 68.437333z" fill="#00913A" p-id="6786"></path><path d="M523.264 742.058667h63.829333A45.056 45.056 0 0 1 632.661333 785.066667a44.202667 44.202667 0 0 1-44.714666 45.397333q-65.024 1.706667-130.048 0a44.373333 44.373333 0 0 1-44.544-43.349333 45.397333 45.397333 0 0 1 46.08-44.373334c21.333333-1.536 42.496-0.853333 63.829333-0.682666zM522.581333 364.202667a133.461333 133.461333 0 0 0-127.658666 88.917333 165.546667 165.546667 0 0 0 29.354666 158.72 489.642667 489.642667 0 0 0 82.432 81.408c8.533333 7.168 17.066667 11.946667 27.818667 4.266667 56.32-43.861333 107.349333-92.501333 122.538667-165.888a136.533333 136.533333 0 0 0-134.485334-167.424z m1.536 197.290666a59.733333 59.733333 0 0 1-61.44-60.757333 60.586667 60.586667 0 0 1 121.002667-2.048 60.074667 60.074667 0 0 1-59.562667 62.805333z" fill="#00913A" p-id="6787"></path></svg>