<svg xmlns="http://www.w3.org/2000/svg" viewBox="0 0 409.95 230.88"><defs><style>.cls-1{fill:#c3d2f5;stroke:#95acea;stroke-miterlimit:10;}</style></defs><title>资源 2</title><g id="图层_2" data-name="图层 2"><g id="图层_1-2" data-name="图层 1"><path class="cls-1" d="M336.33,15.87l12,8a3,3,0,0,0,3.76-.37l1.32-1.33a3,3,0,0,1,3.25-.64l6.52,2.71a3.07,3.07,0,0,1,1,.68l19.44,20.14a3,3,0,0,1,.82,2.36l-1.57,15.7a3,3,0,0,0,4.24,3L393,63.39a3,3,0,0,1,4.21,2.2l.73,4.4a3.12,3.12,0,0,0,.46,1.17L409,87.05a3,3,0,0,1,.2,3L398,113a3,3,0,0,0,.17,2.91l4.43,6.9a3,3,0,0,1-.49,3.8l-6.28,5.76a3,3,0,0,0-.94,1.8l-1.21,9.11a3,3,0,0,1-.82,1.68l-22,22.72a3,3,0,0,1-2.62.87l-25.1-4.07a3,3,0,0,1-1.54-.75l-18.36-17a3,3,0,0,0-2.49-.75l-10.13,1.6a3,3,0,0,1-3.32-2.09l-3.35-11.15a2.94,2.94,0,0,0-1.52-1.81l-8.08-4a2.94,2.94,0,0,1-1.53-1.86l-2.52-9.05a3,3,0,0,0-3.85-2l-10.12,3.54a3,3,0,0,0-2,2.46l-1,8.35a3,3,0,0,1-2.75,2.62l-6.85.49a3,3,0,0,0-1.89.86l-5.58,5.59a3,3,0,0,1-2.56.84l-7.35-1.13a2.92,2.92,0,0,0-1.6.19l-5.08,2.11a3,3,0,0,0-1.46,4.2l4.88,8.79a3,3,0,0,1-.22,3.23l-5.53,7.38-7.81,9.76a3,3,0,0,0-.41,3l3.52,8.21a3.14,3.14,0,0,1,.24,1.17v11.29a32.12,32.12,0,0,1-1.74,6.06,2.94,2.94,0,0,1-1.86,1.83l-5.17,1.73-.32.08-9.4,2a3,3,0,0,1-1.66-.12l-3.68,2.32c-.86-.32-10.22.51-11,1l-13.95-4.61a3,3,0,0,1-4.11-1l-2.67-4.33a3,3,0,0,0-4.33-.82l-5.41,4.06a3,3,0,0,1-2,.59l-4.28-.33a3,3,0,0,0-3.09,3.79l4,14a3,3,0,0,1-1.85,3.61l-4.65,1.7a3.08,3.08,0,0,1-1.85.06l-21.3-6.18a3,3,0,0,0-1.65,0l-3.21.92a3,3,0,0,1-2.24-.25l-14.63-8a2.91,2.91,0,0,0-1.42-.36h-1a3,3,0,0,1-3-2.65l-.88-7.95a3,3,0,0,0-3.11-2.65l-11.75.59a2.93,2.93,0,0,1-.66,0L73.24,201a2.92,2.92,0,0,1-1.69-.92l-6-6.52c-.9-1-.32,9.36-1.51,10l-13.55-4.84a3,3,0,0,1-2.66,0l-4.78-2.39c-.83-.42-6.17,7.81-7,8.23l-6.66-2.73a3,3,0,0,1-2.17.2l-9.48-2.79a3,3,0,0,1-2.13-2.73L15,182.6a3.07,3.07,0,0,0-.87-2L7.56,174a3,3,0,0,1-.86-1.87l-1.21-15.1A3,3,0,0,1,7.6,154L11,153a3,3,0,0,0,2.07-2.27L15,141.12a3,3,0,0,0-2.92-3.56H3.48a3,3,0,0,1-2.82-3.92l1.26-3.8a3,3,0,0,1,1.54-1.75l15.73-7.52a3.35,3.35,0,0,0,.45-.27l6.74-4.81a3,3,0,0,0,0-4.88l-7.58-5.21a3,3,0,0,1-1.13-1.51L8.45,76.35a2.78,2.78,0,0,1-.15-1.07l.64-14.07a3,3,0,0,1,1.64-2.53l5.57-2.78a3.47,3.47,0,0,0,.57-.37L37.2,38.46a3,3,0,0,1,3.35-.31l10.24,5.68a3,3,0,0,1,1.52,2.31l.44,4.36a3,3,0,0,0,1.48,2.29l13.9,7.94a2.8,2.8,0,0,0,.83.32l11.61,2.58A3,3,0,0,0,83,63.11l9.12-6.84a3,3,0,0,1,3.44-.1l13.34,8.9a3,3,0,0,0,1.14.45l26.7,4.68a3,3,0,0,0,3.3-1.89l.45-1.19a3,3,0,0,1,3.42-1.86c3.53.78,9.61,1.95,10.14.9s2.31-11.13,3.2-16.29a3,3,0,0,1,3.53-2.39c1.89.4,4,.83,4.42.83.61,0,7.12-3,9.53-4.05A3,3,0,0,0,176.09,43l2.73-4.91a3,3,0,0,1,1.5-1.32l8-3.19a3,3,0,0,1,3.54,1l6.21,8.8a3,3,0,0,0,3.54,1.05L210.32,41a2.16,2.16,0,0,0,.48-.24l25-15.72A3.08,3.08,0,0,0,237,23.66l3.16-7.38a3,3,0,0,1,3.27-1.76l21.43,3.9a3,3,0,0,0,1.53-.13l7.12-2.54a3,3,0,0,0,1.89-3.53L275,10.85a3,3,0,0,1,1.14-3.14l9.2-6.65a3,3,0,0,1,4.25.81l4,6.26a3,3,0,0,0,2.75,1.36l8.06-.64a9.44,9.44,0,0,1,10.09,8h0a3,3,0,0,0,.9,1.71c1.33,1.27,4.09,3.74,5.2,3.74s9.08-4.51,12.53-6.51A3,3,0,0,1,336.33,15.87Z"/></g></g></svg>